<?xml version="1.0" ?><svg height="48px" version="1.1" viewBox="0 0 48 48" width="48px" xmlns="http://www.w3.org/2000/svg" xmlns:xlink="http://www.w3.org/1999/xlink"><title/><g fill="none" fill-rule="evenodd" id="arrow-infinity" stroke="none" stroke-width="1"><path d="M19.803351,12.8723811 L19.44549,13.2570084 L17.645,15.136 L17.2987222,14.9646263 C15.9077415,14.3068038 14.4531028,14 13,14 C7.28097508,14 3,18.6132178 3,24 C3,29.4063461 7.38649428,34 13,34 C15.7186967,34 18.4141564,32.8230674 20.2277282,30.910578 L25.1715256,25.6922301 L30.7232867,19.8014916 C31.8622722,18.591876 33.445853,18 35,18 C38.2767886,18 41,20.6318055 41,24 C41,27.2077478 38.3897718,30 35,30 C33.1168703,30 31.9902412,29.4112926 30.506822,27.9462912 L29.8209941,27.2452976 L29.1726485,26.5598441 L28.420825,25.7465711 C28.2247536,25.5325335 27.8882367,25.5298818 27.6888166,25.7408028 L25.63668,27.9112902 C25.4549065,28.103547 25.4543777,28.4041332 25.6354737,28.5970283 L27.5785752,30.6705565 L27.8402332,30.9381192 C28.1828339,31.2801134 28.5307084,31.5934551 28.9083168,31.8907694 C30.5975836,33.220833 32.5853184,34 35,34 C40.6650242,34 45,29.3809533 45,24 C45,18.5504558 40.6133919,14 35,14 C32.1877969,14 29.5398914,15.1553706 27.5764606,17.2800553 L25.2221619,19.8211724 L22.5224477,22.705312 L17.3313715,28.1466868 C16.1388729,29.396575 14.6247645,30 13,30 C9.59806546,30 7,27.2150719 7,24 C7,20.7814618 9.59232623,18 13,18 L13.2354355,18.004824 C13.6364303,18.020887 14.0750425,18.0769801 14.4703653,18.17183 L14.654,18.22 L12.8308385,20.0402882 C12.7371615,20.1343689 12.6531617,20.2190863 12.5670301,20.3062717 C12.2712431,20.6056774 12.4551244,21.1142673 12.8739931,21.1552884 L18.79679,21.7281732 L20.4419629,21.8765212 C20.7411193,21.902089 20.9951905,21.6600912 20.9842061,21.3600452 L20.6703716,13.1936885 C20.6543913,12.7475583 20.1062049,12.5444071 19.803351,12.8723811 Z" fill="#000000" fill-rule="nonzero" id="Path-4"/></g></svg>